<svg width="22" height="22" viewBox="0 0 22 22" fill="none" xmlns="http://www.w3.org/2000/svg">
<path d="M11.6508 12.2834C11.5656 12.3694 11.4642 12.4376 11.3525 12.4841C11.2408 12.5306 11.121 12.5546 11 12.5546C10.879 12.5546 10.7592 12.5306 10.6475 12.4841C10.5358 12.4376 10.4344 12.3694 10.3492 12.2834L6.15084 8.07594C6.06562 7.99002 5.96424 7.92183 5.85253 7.87529C5.74083 7.82875 5.62102 7.80479 5.50001 7.80479C5.37899 7.80479 5.25918 7.82875 5.14748 7.87529C5.03577 7.92183 4.93439 7.99002 4.84917 8.07594C4.67844 8.24769 4.58261 8.48002 4.58261 8.72219C4.58261 8.96436 4.67844 9.19669 4.84917 9.36844L9.05668 13.5759C9.5723 14.0909 10.2713 14.3802 11 14.3802C11.7288 14.3802 12.4277 14.0909 12.9433 13.5759L17.1509 9.36844C17.3202 9.1977 17.4157 8.96725 17.4167 8.72677C17.4174 8.60613 17.3943 8.48654 17.3486 8.37486C17.303 8.26318 17.2358 8.16159 17.1509 8.07594C17.0656 7.99002 16.9643 7.92183 16.8525 7.87529C16.7408 7.82875 16.621 7.80479 16.5 7.80479C16.379 7.80479 16.2592 7.82875 16.1475 7.87529C16.0358 7.92183 15.9344 7.99002 15.8492 8.07594L11.6508 12.2834Z" fill="#FD9222"/>
</svg>
