<svg width="38" height="38" viewBox="0 0 38 38" fill="none" xmlns="http://www.w3.org/2000/svg">
<rect width="38" height="38" rx="19" transform="matrix(0 1 1 0 0 0)" fill="white"/>
<path d="M19.6508 20.2834C19.5656 20.3693 19.4642 20.4375 19.3525 20.484C19.2408 20.5306 19.121 20.5545 19 20.5545C18.879 20.5545 18.7592 20.5306 18.6475 20.484C18.5358 20.4375 18.4344 20.3693 18.3492 20.2834L14.1508 16.0759C14.0656 15.99 13.9642 15.9218 13.8525 15.8752C13.7408 15.8287 13.621 15.8047 13.5 15.8047C13.379 15.8047 13.2592 15.8287 13.1475 15.8752C13.0358 15.9218 12.9344 15.99 12.8492 16.0759C12.6784 16.2476 12.5826 16.48 12.5826 16.7221C12.5826 16.9643 12.6784 17.1966 12.8492 17.3684L17.0567 21.5759C17.5723 22.0909 18.2713 22.3801 19 22.3801C19.7288 22.3801 20.4277 22.0909 20.9433 21.5759L25.1509 17.3684C25.3202 17.1976 25.4157 16.9672 25.4167 16.7267C25.4174 16.6061 25.3943 16.4865 25.3486 16.3748C25.303 16.2631 25.2358 16.1615 25.1509 16.0759C25.0656 15.99 24.9643 15.9218 24.8525 15.8752C24.7408 15.8287 24.621 15.8047 24.5 15.8047C24.379 15.8047 24.2592 15.8287 24.1475 15.8752C24.0358 15.9218 23.9344 15.99 23.8492 16.0759L19.6508 20.2834Z" fill="#FD9222"/>
</svg>
