<svg width="20" height="20" viewBox="0 0 20 20" fill="none" xmlns="http://www.w3.org/2000/svg">
<rect width="20" height="20" rx="6" fill="#FD9222"/>
<path d="M8.94874 14.7542C9.38459 14.7542 9.71409 14.5869 9.93724 14.2521L14.7646 6.97702C14.8448 6.85847 14.9041 6.74167 14.9425 6.6266C14.9808 6.50805 15 6.39473 15 6.28664C15 5.98678 14.8954 5.73922 14.6862 5.54397C14.4805 5.34522 14.2259 5.24585 13.9226 5.24585C13.7134 5.24585 13.5356 5.28769 13.3891 5.37137C13.2462 5.45157 13.1102 5.59104 12.9812 5.78978L8.92782 12.1548L6.89854 9.72284C6.67887 9.4683 6.40342 9.34104 6.07218 9.34104C5.76185 9.34104 5.50558 9.44041 5.30335 9.63916C5.10112 9.8379 5 10.0872 5 10.3871C5 10.523 5.02092 10.6521 5.06276 10.7741C5.10809 10.8926 5.19003 11.0164 5.30858 11.1454L8.00209 14.3201C8.24965 14.6095 8.5652 14.7542 8.94874 14.7542Z" fill="white"/>
</svg>
