<svg width="32" height="32" viewBox="0 0 32 32" fill="none" xmlns="http://www.w3.org/2000/svg">
<path d="M16.0001 2.66663C8.66675 2.66663 2.66675 8.66663 2.66675 16C2.66675 23.3333 8.66675 29.3333 16.0001 29.3333C23.3334 29.3333 29.3334 23.3333 29.3334 16C29.3334 8.66663 23.3334 2.66663 16.0001 2.66663ZM16.0001 26.6666C10.1334 26.6666 5.33341 21.8666 5.33341 16C5.33341 10.1333 10.1334 5.33329 16.0001 5.33329C21.8667 5.33329 26.6667 10.1333 26.6667 16C26.6667 21.8666 21.8667 26.6666 16.0001 26.6666Z" fill="#FD9222"/>
<path d="M17.7334 14.6666H14.2667C13.6001 14.6666 13.0667 14.1333 13.0667 13.4666C13.0667 12.8 13.6001 12.2666 14.2667 12.2666H19.2001C20.0001 12.2666 20.5334 11.7333 20.5334 10.9333C20.5334 10.1333 20.0001 9.59996 19.2001 9.59996H17.3334V8.39996C17.3334 7.59996 16.8001 7.06663 16.0001 7.06663C15.2001 7.06663 14.6667 7.59996 14.6667 8.39996V9.59996H14.2667C12.1334 9.59996 10.4001 11.3333 10.4001 13.4666C10.4001 15.6 12.1334 17.3333 14.2667 17.3333H17.6001C18.2667 17.3333 18.8001 17.8666 18.8001 18.5333C18.8001 19.2 18.2667 19.7333 17.6001 19.7333H12.6667C11.8667 19.7333 11.3334 20.2666 11.3334 21.0666C11.3334 21.8666 11.8667 22.4 12.6667 22.4H14.6667V23.6C14.6667 24.4 15.2001 24.9333 16.0001 24.9333C16.8001 24.9333 17.3334 24.4 17.3334 23.6V22.4H17.7334C19.8667 22.4 21.6001 20.6666 21.6001 18.5333C21.6001 16.4 19.8667 14.6666 17.7334 14.6666Z" fill="#FD9222"/>
</svg>
