<svg width="24" height="24" viewBox="0 0 24 24" fill="none" xmlns="http://www.w3.org/2000/svg">
<path d="M14.61 3.63007C14.79 3.63007 14.97 3.63007 15.33 3.63007V6.33007C15.15 6.33007 14.79 6.33007 14.43 6.33007C14.07 6.33007 13.71 6.33007 13.53 6.51007C13.35 6.69007 13.35 6.87007 13.35 7.29007C13.35 7.65007 13.35 7.89007 13.35 8.25007H15.33V10.5301H13.35V20.4301H10.29V10.4701H8.66998V8.19007H10.29V7.41007C10.29 6.09007 10.47 5.13007 10.83 4.71007C11.37 3.93007 12.45 3.57007 14.07 3.57007C14.25 3.63007 14.43 3.63007 14.61 3.63007Z" fill="#111111"/>
</svg>
