<svg width="24" height="24" viewBox="0 0 24 24" fill="none" xmlns="http://www.w3.org/2000/svg">
<path d="M19.4999 10.6815C17.5 9.5 17.1948 8 17.9495 5.81506L11.0439 1.5L2.19494 16.0153L12.3715 22.3744L19.4999 10.6815ZM15.3212 17.5359L5.14461 11.1769L15.3212 17.5359ZM8.09428 6.33845L18.2709 12.6975L8.09428 6.33845ZM7.28323 19.1949L16.1322 4.67952L7.28323 19.1949Z" fill="#FD9222" fill-opacity="0.1"/>
<path d="M15.3212 17.5359L5.14461 11.1769M8.09428 6.33845L18.2709 12.6975M7.28323 19.1949L16.1322 4.67952M19.4999 10.6815C17.5 9.5 17.1948 8 17.9495 5.81506L11.0439 1.5L2.19494 16.0153L12.3715 22.3744L19.4999 10.6815Z" stroke="#FD9222" stroke-width="2" stroke-linecap="round" stroke-linejoin="round"/>
</svg>
