<svg aria-hidden="true" style="position: absolute; width: 0; height: 0; overflow: hidden;" version="1.1" xmlns="http://www.w3.org/2000/svg" xmlns:xlink="http://www.w3.org/1999/xlink">
<defs>
<symbol id="logo" viewBox="0 0 32 32">
<path fill="#fd9222" style="fill: var(--color1, #fd9222)" opacity="0.1" d="M26 14.242c-2.667-1.575-3.073-3.575-2.067-6.489l-9.207-5.753-11.799 19.354 13.569 8.479 9.505-15.591zM20.428 23.381v0zM10.792 8.451v0zM9.711 25.593v0z"></path>
<path fill="none" stroke="#fd9222" style="stroke: var(--color1, #fd9222)" stroke-linejoin="round" stroke-linecap="round" stroke-miterlimit="4" stroke-width="2.6667" d="M20.428 23.381l-13.569-8.479M10.792 8.451l13.569 8.479M9.711 25.593l11.799-19.354M26 14.242c-2.667-1.575-3.073-3.575-2.067-6.489l-9.207-5.753-11.799 19.354 13.569 8.479 9.505-15.591z"></path>
</symbol>
<symbol id="facebook" viewBox="0 0 32 32">
<path d="M19.48 4.84c0.24 0 0.48 0 0.96 0v3.6c-0.24 0-0.72 0-1.2 0s-0.96 0-1.2 0.24c-0.24 0.24-0.24 0.48-0.24 1.040 0 0.48 0 0.8 0 1.28h2.64v3.040h-2.64v13.2h-4.080v-13.28h-2.16v-3.040h2.16v-1.040c0-1.76 0.24-3.040 0.72-3.6 0.72-1.040 2.16-1.52 4.32-1.52 0.24 0.080 0.48 0.080 0.72 0.080z"></path>
</symbol>
<symbol id="instagram" viewBox="0 0 32 32">
<path d="M28.718 10.756c-0.016-1.074-0.215-2.14-0.596-3.145-0.667-1.716-2.024-3.073-3.743-3.737-0.994-0.373-2.044-0.573-3.108-0.596-1.367-0.061-1.801-0.078-5.273-0.078s-3.916 0-5.274 0.078c-1.062 0.023-2.112 0.223-3.106 0.596-1.719 0.664-3.078 2.021-3.743 3.737-0.374 0.992-0.576 2.041-0.596 3.101-0.061 1.367-0.080 1.8-0.080 5.265s0 3.909 0.080 5.265c0.021 1.062 0.222 2.109 0.596 3.104 0.667 1.714 2.024 3.071 3.744 3.735 0.989 0.386 2.040 0.605 3.106 0.639 1.369 0.061 1.803 0.079 5.274 0.079s3.917 0 5.274-0.079c1.062-0.021 2.112-0.221 3.108-0.595 1.719-0.666 3.076-2.022 3.743-3.737 0.374-0.993 0.574-2.041 0.596-3.104 0.061-1.365 0.080-1.798 0.080-5.265-0.003-3.466-0.003-3.906-0.082-5.264zM15.99 22.531c-3.631 0-6.572-2.936-6.572-6.561s2.941-6.561 6.572-6.561c3.628 0 6.572 2.936 6.572 6.561s-2.944 6.561-6.572 6.561zM22.824 10.696c-0.849 0-1.532-0.684-1.532-1.53s0.684-1.53 1.532-1.53c0.846 0 1.531 0.684 1.531 1.53s-0.685 1.53-1.531 1.53z"></path>
<path d="M15.992 19.976c2.211 0 4.004-1.793 4.004-4.004s-1.793-4.004-4.004-4.004c-2.211 0-4.004 1.793-4.004 4.004s1.793 4.004 4.004 4.004z"></path>
</symbol>
<symbol id="twitter" viewBox="0 0 32 32">
<path d="M23.667 4h4.090l-8.933 10.166 10.51 13.834h-8.228l-6.445-8.392-7.375 8.392h-4.092l9.555-10.875-10.082-13.125h8.438l5.825 7.668 6.737-7.668zM22.233 25.564h2.267l-14.628-19.255h-2.43l14.792 19.255z"></path>
</symbol>
<symbol id="arrow-down" viewBox="0 0 32 32">
<path d="M16.947 17.867c-0.124 0.125-0.271 0.224-0.434 0.292s-0.337 0.103-0.513 0.103c-0.176 0-0.35-0.035-0.513-0.103s-0.31-0.167-0.434-0.292l-6.107-6.12c-0.124-0.125-0.271-0.224-0.434-0.292s-0.337-0.103-0.513-0.103c-0.176 0-0.35 0.035-0.513 0.103s-0.31 0.167-0.434 0.292c-0.248 0.25-0.388 0.588-0.388 0.94s0.139 0.69 0.388 0.94l6.12 6.12c0.75 0.749 1.767 1.17 2.827 1.17s2.077-0.421 2.827-1.17l6.12-6.12c0.246-0.248 0.385-0.584 0.387-0.933 0.001-0.175-0.033-0.349-0.099-0.512s-0.164-0.31-0.288-0.435c-0.124-0.125-0.271-0.224-0.434-0.292s-0.337-0.103-0.513-0.103-0.35 0.035-0.513 0.103c-0.162 0.068-0.31 0.167-0.434 0.292l-6.107 6.12z"></path>
</symbol>
<symbol id="chocolate" viewBox="0 0 32 32">
<path fill="#000" style="fill: var(--color2, #000)" d="M13.822 2.413l7.527 7.536 0.080-0.080c0.158-0.154 0.369-0.242 0.589-0.244s0.434 0.080 0.595 0.231l0.873 0.873c0.305 0.305 0.315 0.77 0.083 1.094l-0.004 0.007-0.143 0.192 6.16 6.16c0.55 0.55 0.55 1.43 0 1.98l-9.43 9.43c-0.55 0.55-1.43 0.55-1.98 0l-4.447-4.447c-0.074 0.093-0.167 0.169-0.272 0.224s-0.221 0.086-0.34 0.093c-0.119 0.007-0.237-0.012-0.348-0.054s-0.212-0.108-0.296-0.192l-2.6-2.6c-0.154-0.158-0.242-0.369-0.244-0.589s0.080-0.434 0.231-0.595l0.006-0.007 0.077-0.076-7.527-7.527c-0.55-0.55-0.55-1.43 0-1.98l9.43-9.43c0.55-0.55 1.43-0.55 1.98 0v0.001zM20.404 10.893l-1.756-1.755c-0.055-0.057-0.121-0.102-0.194-0.133s-0.151-0.047-0.231-0.047c-0.079 0-0.158 0.016-0.231 0.047s-0.139 0.076-0.194 0.133l-3.58 3.58c-0.057 0.056-0.102 0.123-0.132 0.197s-0.047 0.153-0.047 0.233 0.016 0.159 0.047 0.233c0.031 0.074 0.076 0.141 0.132 0.197l1.749 1.749 0.61-0.61-1.565-1.565 3.21-3.22 1.569 1.574 0.613-0.613zM15.328 15.965l-1.754-1.754c-0.055-0.057-0.121-0.102-0.194-0.133s-0.152-0.047-0.231-0.047c-0.079 0-0.158 0.016-0.231 0.047s-0.139 0.076-0.194 0.133l-3.59 3.59c-0.24 0.23-0.24 0.61 0 0.85l1.752 1.752 0.616-0.616-1.57-1.564 3.22-3.21 1.564 1.563 0.612-0.611zM8.822 8.193l3.58 3.58c0.24 0.24 0.62 0.24 0.85-0.010l3.58-3.58c0.057-0.054 0.102-0.119 0.133-0.192s0.047-0.15 0.047-0.228h0.010c0-0.15-0.060-0.31-0.18-0.43l-3.58-3.58c-0.056-0.057-0.123-0.102-0.197-0.133s-0.153-0.047-0.233-0.047c-0.080 0-0.159 0.016-0.233 0.047s-0.141 0.076-0.197 0.133l-3.58 3.59c-0.24 0.23-0.24 0.61 0 0.85zM3.752 13.263l3.58 3.58c0.24 0.24 0.62 0.24 0.85 0l3.58-3.58c0.058-0.055 0.104-0.122 0.135-0.196s0.046-0.154 0.045-0.234h0.010c0-0.16-0.060-0.31-0.18-0.43l-3.58-3.58c-0.055-0.057-0.121-0.102-0.194-0.133s-0.151-0.047-0.231-0.047c-0.079 0-0.158 0.016-0.231 0.047s-0.139 0.076-0.194 0.133l-3.59 3.59c-0.24 0.23-0.24 0.61 0 0.85zM10.685 22.017l2.362 2.363 9.636-13.040-0.655-0.655-11.343 11.332z"></path>
<path fill="#fd9222" style="fill: var(--color1, #fd9222)" d="M13.822 2.413l7.527 7.536 0.080-0.080c0.158-0.154 0.369-0.242 0.589-0.244s0.434 0.080 0.595 0.231l0.873 0.873c0.305 0.305 0.315 0.77 0.083 1.094l-0.004 0.007-0.143 0.192 6.16 6.16c0.55 0.55 0.55 1.43 0 1.98l-9.43 9.43c-0.55 0.55-1.43 0.55-1.98 0l-4.447-4.447c-0.074 0.093-0.167 0.169-0.272 0.224s-0.221 0.086-0.34 0.093c-0.119 0.007-0.237-0.012-0.348-0.054s-0.212-0.108-0.296-0.192l-2.6-2.6c-0.154-0.158-0.242-0.369-0.244-0.589s0.080-0.434 0.231-0.595l0.006-0.007 0.077-0.076-7.527-7.527c-0.55-0.55-0.55-1.43 0-1.98l9.43-9.43c0.55-0.55 1.43-0.55 1.98 0v0.001zM20.404 10.893l-1.756-1.755c-0.055-0.057-0.121-0.102-0.194-0.133s-0.151-0.047-0.231-0.047c-0.079 0-0.158 0.016-0.231 0.047s-0.139 0.076-0.194 0.133l-3.58 3.58c-0.057 0.056-0.102 0.123-0.132 0.197s-0.047 0.153-0.047 0.233 0.016 0.159 0.047 0.233c0.031 0.074 0.076 0.141 0.132 0.197l1.749 1.749 0.61-0.61-1.565-1.565 3.21-3.22 1.569 1.574 0.613-0.613zM15.328 15.965l-1.754-1.754c-0.055-0.057-0.121-0.102-0.194-0.133s-0.152-0.047-0.231-0.047c-0.079 0-0.158 0.016-0.231 0.047s-0.139 0.076-0.194 0.133l-3.59 3.59c-0.24 0.23-0.24 0.61 0 0.85l1.752 1.752 0.616-0.616-1.57-1.564 3.22-3.21 1.564 1.563 0.612-0.611zM8.822 8.193l3.58 3.58c0.24 0.24 0.62 0.24 0.85-0.010l3.58-3.58c0.057-0.054 0.102-0.119 0.133-0.192s0.047-0.15 0.047-0.228h0.010c0-0.15-0.060-0.31-0.18-0.43l-3.58-3.58c-0.056-0.057-0.123-0.102-0.197-0.133s-0.153-0.047-0.233-0.047c-0.080 0-0.159 0.016-0.233 0.047s-0.141 0.076-0.197 0.133l-3.58 3.59c-0.24 0.23-0.24 0.61 0 0.85zM3.752 13.263l3.58 3.58c0.24 0.24 0.62 0.24 0.85 0l3.58-3.58c0.058-0.055 0.104-0.122 0.135-0.196s0.046-0.154 0.045-0.234h0.010c0-0.16-0.060-0.31-0.18-0.43l-3.58-3.58c-0.055-0.057-0.121-0.102-0.194-0.133s-0.151-0.047-0.231-0.047c-0.079 0-0.158 0.016-0.231 0.047s-0.139 0.076-0.194 0.133l-3.59 3.59c-0.24 0.23-0.24 0.61 0 0.85zM10.685 22.017l2.362 2.363 9.636-13.040-0.655-0.655-11.343 11.332z"></path>
</symbol>
<symbol id="coin" viewBox="0 0 32 32">
<path fill="#fd9222" style="fill: var(--color1, #fd9222)" d="M16 2.667c-7.333 0-13.333 6-13.333 13.333s6 13.333 13.333 13.333c7.333 0 13.333-6 13.333-13.333s-6-13.333-13.333-13.333zM16 26.667c-5.867 0-10.667-4.8-10.667-10.667s4.8-10.667 10.667-10.667c5.867 0 10.667 4.8 10.667 10.667s-4.8 10.667-10.667 10.667z"></path>
<path fill="#fd9222" style="fill: var(--color1, #fd9222)" d="M17.733 14.667h-3.467c-0.667 0-1.2-0.533-1.2-1.2s0.533-1.2 1.2-1.2h4.933c0.8 0 1.333-0.533 1.333-1.333s-0.533-1.333-1.333-1.333h-1.867v-1.2c0-0.8-0.533-1.333-1.333-1.333s-1.333 0.533-1.333 1.333v1.2h-0.4c-2.133 0-3.867 1.733-3.867 3.867s1.733 3.867 3.867 3.867h3.333c0.667 0 1.2 0.533 1.2 1.2s-0.533 1.2-1.2 1.2h-4.933c-0.8 0-1.333 0.533-1.333 1.333s0.533 1.333 1.333 1.333h2v1.2c0 0.8 0.533 1.333 1.333 1.333s1.333-0.533 1.333-1.333v-1.2h0.4c2.133 0 3.867-1.733 3.867-3.867s-1.733-3.867-3.867-3.867z"></path>
</symbol>
<symbol id="spoon" viewBox="0 0 32 32">
<path fill="#fd9222" style="fill: var(--color1, #fd9222)" d="M15.451 14.106c-0.783-0.95-1.177-2.116-1.177-3.282 0-4.324 5.181-8.642 10.362-8.642 2.86 0 5.181 2.321 5.181 5.182 0 5.182-4.318 10.364-8.646 10.364-1.166 0-2.331-0.394-3.281-1.177l-12.758 12.761c-0.675 0.675-1.77 0.675-2.445 0s-0.675-1.77 0-2.445l12.764-12.761z"></path>
</symbol>
<symbol id="arrow" viewBox="0 0 32 32">
<path stroke-linejoin="round" stroke-linecap="round" stroke-miterlimit="4" stroke-width="1.3333" d="M9.143 16h13.714M19.429 19.429l3.429-3.429-3.429-3.429"></path>
<path stroke-linejoin="round" stroke-linecap="round" stroke-miterlimit="4" stroke-width="1.3333" d="M16 30.857c8.205 0 14.857-6.652 14.857-14.857s-6.652-14.857-14.857-14.857c-8.205 0-14.857 6.652-14.857 14.857s6.652 14.857 14.857 14.857z"></path>
</symbol>
</defs>
</svg>
